<svg xmlns="http://www.w3.org/2000/svg" width="600" height="600" viewBox="0 0 600 600">
  <g fill="none" fill-rule="evenodd">
    <rect width="600" height="600" fill="#FF4100"/>
    <g fill="#EDEBE5" transform="translate(161 136)">
      <path d="M278.606426,105.334199 C278.606426,47.2529345 231.811196,0 174.29258,0 C120.61775,0 76.2951234,41.1500303 70.6064257,93.8455245 L94.781088,118.147524 L118.345166,94.4939828 C123.364063,67.7751221 146.525472,47.5025447 174.29258,47.5025447 C205.712667,47.5025447 231.275619,73.446161 231.275619,105.334199 C231.275619,124.42608 222.072114,141.336183 207.974724,151.873961 L207.974724,205 C249.010196,190.821082 278.606426,151.516054 278.606426,105.334199 Z"/>
      <path d="M189.606426,238.460188 L189.606426,93 L146.731792,93 L95.1064257,144.762103 L43.4810591,93 L0.606425703,93 L0.606425703,238.460188 L0.821564394,238.675842 L0.606425703,238.675842 L0.606425703,328 L45.2193269,283.191726 L45.1704917,220.042331 C45.0912996,206.326512 44.9183967,192.761517 44.6517831,179.725734 L44.1673911,156.031646 L94.9942368,207.11239 L95.1064257,207.218232 L95.2172947,207.11239 L146.04546,156.031646 L145.561068,179.725734 C145.294455,192.761517 145.121552,206.326512 145.04236,220.042331 L144.993525,283.191726 L145.208663,283.072654 L189.606426,238.460188"/>
    </g>
  </g>
</svg>
