<?xml version="1.0" encoding="UTF-8" standalone="no"?>
<!DOCTYPE svg PUBLIC "-//W3C//DTD SVG 1.1//EN"
 "http://www.w3.org/Graphics/SVG/1.1/DTD/svg11.dtd">
<!-- Generated by graphviz version 2.44.1 (20200629.0846)
 -->
<!-- Title: G Pages: 1 -->
<svg width="210pt" height="590pt"
 viewBox="0.00 0.00 210.00 590.00" xmlns="http://www.w3.org/2000/svg" xmlns:xlink="http://www.w3.org/1999/xlink">
<g id="graph0" class="graph" transform="scale(1 1) rotate(0) translate(4 586)">
<title>G</title>
<polygon fill="white" stroke="transparent" points="-4,4 -4,-586 206,-586 206,4 -4,4"/>
<g id="clust1" class="cluster">
<title>cluster_Global</title>
<path fill="none" stroke="gray" d="M20,-8C20,-8 182,-8 182,-8 188,-8 194,-14 194,-20 194,-20 194,-562 194,-562 194,-568 188,-574 182,-574 182,-574 20,-574 20,-574 14,-574 8,-568 8,-562 8,-562 8,-20 8,-20 8,-14 14,-8 20,-8"/>
<text text-anchor="middle" x="101" y="-561.2" font-family="Times,serif" font-size="11.00" fill="gray">Global</text>
</g>
<g id="clust2" class="cluster">
<title>cluster_\Mo</title>
<path fill="none" stroke="gray" d="M28,-114C28,-114 174,-114 174,-114 180,-114 186,-120 186,-126 186,-126 186,-534 186,-534 186,-540 180,-546 174,-546 174,-546 28,-546 28,-546 22,-546 16,-540 16,-534 16,-534 16,-126 16,-126 16,-120 22,-114 28,-114"/>
<text text-anchor="middle" x="101" y="-533.2" font-family="Times,serif" font-size="11.00" fill="gray">Mo</text>
</g>
<g id="clust3" class="cluster">
<title>cluster_\Mo\Core</title>
<path fill="none" stroke="gray" d="M36,-122C36,-122 166,-122 166,-122 172,-122 178,-128 178,-134 178,-134 178,-506 178,-506 178,-512 172,-518 166,-518 166,-518 36,-518 36,-518 30,-518 24,-512 24,-506 24,-506 24,-134 24,-134 24,-128 30,-122 36,-122"/>
<text text-anchor="middle" x="101" y="-505.2" font-family="Times,serif" font-size="11.00" fill="gray">Core</text>
</g>
<!-- \\Mo\\Core\\Core_Functionality -->
<g id="node1" class="node">
<title>\\Mo\\Core\\Core_Functionality</title>
<polygon fill="none" stroke="black" points="170,-490 32,-490 32,-454 170,-454 170,-490"/>
<text text-anchor="middle" x="101" y="-469.2" font-family="Courier,monospace" font-size="11.00">Core_Functionality</text>
</g>
<!-- \\Mo\\Core\\Twig_Extensions -->
<g id="node2" class="node">
<title>\\Mo\\Core\\Twig_Extensions</title>
<polygon fill="none" stroke="black" points="160,-436 42,-436 42,-400 160,-400 160,-436"/>
<text text-anchor="middle" x="101" y="-415.2" font-family="Courier,monospace" font-size="11.00">Twig_Extensions</text>
</g>
<!-- \\Mo\\Core\\Images -->
<g id="node3" class="node">
<title>\\Mo\\Core\\Images</title>
<polygon fill="none" stroke="black" points="129.5,-382 72.5,-382 72.5,-346 129.5,-346 129.5,-382"/>
<text text-anchor="middle" x="101" y="-361.2" font-family="Courier,monospace" font-size="11.00">Images</text>
</g>
<!-- \\Mo\\Core\\Svg -->
<g id="node4" class="node">
<title>\\Mo\\Core\\Svg</title>
<polygon fill="none" stroke="black" points="128,-328 74,-328 74,-292 128,-292 128,-328"/>
<text text-anchor="middle" x="101" y="-307.2" font-family="Courier,monospace" font-size="11.00">Svg</text>
</g>
<!-- \\Mo\\Core\\Helpers -->
<g id="node5" class="node">
<title>\\Mo\\Core\\Helpers</title>
<polygon fill="none" stroke="black" points="133,-274 69,-274 69,-238 133,-238 133,-274"/>
<text text-anchor="middle" x="101" y="-253.2" font-family="Courier,monospace" font-size="11.00">Helpers</text>
</g>
<!-- \\Mo\\Core\\Youtube_Embed -->
<g id="node6" class="node">
<title>\\Mo\\Core\\Youtube_Embed</title>
<polygon fill="none" stroke="black" points="153,-220 49,-220 49,-184 153,-184 153,-220"/>
<text text-anchor="middle" x="101" y="-199.2" font-family="Courier,monospace" font-size="11.00">Youtube_Embed</text>
</g>
<!-- \\Mo\\Core\\Video_Embed -->
<g id="node7" class="node">
<title>\\Mo\\Core\\Video_Embed</title>
<polygon fill="none" stroke="black" points="146.5,-166 55.5,-166 55.5,-130 146.5,-130 146.5,-166"/>
<text text-anchor="middle" x="101" y="-145.2" font-family="Courier,monospace" font-size="11.00">Video_Embed</text>
</g>
<!-- \\FlattedString -->
<g id="node8" class="node">
<title>\\FlattedString</title>
<polygon fill="none" stroke="black" points="153,-106 49,-106 49,-70 153,-70 153,-106"/>
<text text-anchor="middle" x="101" y="-85.2" font-family="Courier,monospace" font-size="11.00">FlattedString</text>
</g>
<!-- \\Flatted -->
<g id="node9" class="node">
<title>\\Flatted</title>
<polygon fill="none" stroke="black" points="133,-52 69,-52 69,-16 133,-16 133,-52"/>
<text text-anchor="middle" x="101" y="-31.2" font-family="Courier,monospace" font-size="11.00">Flatted</text>
</g>
</g>
</svg>
