<?xml version="1.0" encoding="UTF-8" standalone="no"?>
<!DOCTYPE svg PUBLIC "-//W3C//DTD SVG 1.1//EN"
 "http://www.w3.org/Graphics/SVG/1.1/DTD/svg11.dtd">
<!-- Generated by graphviz version 2.44.0 (20200408.0750)
 -->
<!-- Title: G Pages: 1 -->
<svg width="210pt" height="384pt"
 viewBox="0.00 0.00 210.00 384.00" xmlns="http://www.w3.org/2000/svg" xmlns:xlink="http://www.w3.org/1999/xlink">
<g id="graph0" class="graph" transform="scale(1 1) rotate(0) translate(4 380)">
<title>G</title>
<polygon fill="white" stroke="transparent" points="-4,4 -4,-380 206,-380 206,4 -4,4"/>
<g id="clust1" class="cluster">
<title>cluster_Global</title>
<path fill="none" stroke="gray" d="M20,-8C20,-8 182,-8 182,-8 188,-8 194,-14 194,-20 194,-20 194,-356 194,-356 194,-362 188,-368 182,-368 182,-368 20,-368 20,-368 14,-368 8,-362 8,-356 8,-356 8,-20 8,-20 8,-14 14,-8 20,-8"/>
<text text-anchor="middle" x="101" y="-355.2" font-family="Times,serif" font-size="11.00" fill="gray">Global</text>
</g>
<g id="clust2" class="cluster">
<title>cluster_\Mo</title>
<path fill="none" stroke="gray" d="M28,-16C28,-16 174,-16 174,-16 180,-16 186,-22 186,-28 186,-28 186,-328 186,-328 186,-334 180,-340 174,-340 174,-340 28,-340 28,-340 22,-340 16,-334 16,-328 16,-328 16,-28 16,-28 16,-22 22,-16 28,-16"/>
<text text-anchor="middle" x="101" y="-327.2" font-family="Times,serif" font-size="11.00" fill="gray">Mo</text>
</g>
<g id="clust3" class="cluster">
<title>cluster_\Mo\Core</title>
<path fill="none" stroke="gray" d="M36,-24C36,-24 166,-24 166,-24 172,-24 178,-30 178,-36 178,-36 178,-300 178,-300 178,-306 172,-312 166,-312 166,-312 36,-312 36,-312 30,-312 24,-306 24,-300 24,-300 24,-36 24,-36 24,-30 30,-24 36,-24"/>
<text text-anchor="middle" x="101" y="-299.2" font-family="Times,serif" font-size="11.00" fill="gray">Core</text>
</g>
<!-- \\Mo\\Core\\Core_Functionality -->
<g id="node1" class="node">
<title>\\Mo\\Core\\Core_Functionality</title>
<polygon fill="none" stroke="black" points="170,-284 32,-284 32,-248 170,-248 170,-284"/>
<text text-anchor="middle" x="101" y="-263.2" font-family="Courier,monospace" font-size="11.00">Core_Functionality</text>
</g>
<!-- \\Mo\\Core\\Twig_Extensions -->
<g id="node2" class="node">
<title>\\Mo\\Core\\Twig_Extensions</title>
<polygon fill="none" stroke="black" points="160,-230 42,-230 42,-194 160,-194 160,-230"/>
<text text-anchor="middle" x="101" y="-209.2" font-family="Courier,monospace" font-size="11.00">Twig_Extensions</text>
</g>
<!-- \\Mo\\Core\\Images -->
<g id="node3" class="node">
<title>\\Mo\\Core\\Images</title>
<polygon fill="none" stroke="black" points="129.5,-176 72.5,-176 72.5,-140 129.5,-140 129.5,-176"/>
<text text-anchor="middle" x="101" y="-155.2" font-family="Courier,monospace" font-size="11.00">Images</text>
</g>
<!-- \\Mo\\Core\\Svg -->
<g id="node4" class="node">
<title>\\Mo\\Core\\Svg</title>
<polygon fill="none" stroke="black" points="128,-122 74,-122 74,-86 128,-86 128,-122"/>
<text text-anchor="middle" x="101" y="-101.2" font-family="Courier,monospace" font-size="11.00">Svg</text>
</g>
<!-- \\Mo\\Core\\Helpers -->
<g id="node5" class="node">
<title>\\Mo\\Core\\Helpers</title>
<polygon fill="none" stroke="black" points="133,-68 69,-68 69,-32 133,-32 133,-68"/>
<text text-anchor="middle" x="101" y="-47.2" font-family="Courier,monospace" font-size="11.00">Helpers</text>
</g>
</g>
</svg>
