<?xml version="1.0" encoding="UTF-8" standalone="no"?>
<!DOCTYPE svg PUBLIC "-//W3C//DTD SVG 1.1//EN"
 "http://www.w3.org/Graphics/SVG/1.1/DTD/svg11.dtd">
<!-- Generated by graphviz version 2.44.0 (20200408.0750)
 -->
<!-- Title: G Pages: 1 -->
<svg width="210pt" height="438pt"
 viewBox="0.00 0.00 210.00 438.00" xmlns="http://www.w3.org/2000/svg" xmlns:xlink="http://www.w3.org/1999/xlink">
<g id="graph0" class="graph" transform="scale(1 1) rotate(0) translate(4 434)">
<title>G</title>
<polygon fill="white" stroke="transparent" points="-4,4 -4,-434 206,-434 206,4 -4,4"/>
<g id="clust1" class="cluster">
<title>cluster_Global</title>
<path fill="none" stroke="gray" d="M20,-8C20,-8 182,-8 182,-8 188,-8 194,-14 194,-20 194,-20 194,-410 194,-410 194,-416 188,-422 182,-422 182,-422 20,-422 20,-422 14,-422 8,-416 8,-410 8,-410 8,-20 8,-20 8,-14 14,-8 20,-8"/>
<text text-anchor="middle" x="101" y="-409.2" font-family="Times,serif" font-size="11.00" fill="gray">Global</text>
</g>
<g id="clust2" class="cluster">
<title>cluster_\Mo</title>
<path fill="none" stroke="gray" d="M28,-16C28,-16 174,-16 174,-16 180,-16 186,-22 186,-28 186,-28 186,-382 186,-382 186,-388 180,-394 174,-394 174,-394 28,-394 28,-394 22,-394 16,-388 16,-382 16,-382 16,-28 16,-28 16,-22 22,-16 28,-16"/>
<text text-anchor="middle" x="101" y="-381.2" font-family="Times,serif" font-size="11.00" fill="gray">Mo</text>
</g>
<g id="clust3" class="cluster">
<title>cluster_\Mo\Core</title>
<path fill="none" stroke="gray" d="M36,-24C36,-24 166,-24 166,-24 172,-24 178,-30 178,-36 178,-36 178,-354 178,-354 178,-360 172,-366 166,-366 166,-366 36,-366 36,-366 30,-366 24,-360 24,-354 24,-354 24,-36 24,-36 24,-30 30,-24 36,-24"/>
<text text-anchor="middle" x="101" y="-353.2" font-family="Times,serif" font-size="11.00" fill="gray">Core</text>
</g>
<!-- \\Mo\\Core\\Core_Functionality -->
<g id="node1" class="node">
<title>\\Mo\\Core\\Core_Functionality</title>
<polygon fill="none" stroke="black" points="170,-338 32,-338 32,-302 170,-302 170,-338"/>
<text text-anchor="middle" x="101" y="-317.2" font-family="Courier,monospace" font-size="11.00">Core_Functionality</text>
</g>
<!-- \\Mo\\Core\\Twig_Extensions -->
<g id="node2" class="node">
<title>\\Mo\\Core\\Twig_Extensions</title>
<polygon fill="none" stroke="black" points="160,-284 42,-284 42,-248 160,-248 160,-284"/>
<text text-anchor="middle" x="101" y="-263.2" font-family="Courier,monospace" font-size="11.00">Twig_Extensions</text>
</g>
<!-- \\Mo\\Core\\Images -->
<g id="node3" class="node">
<title>\\Mo\\Core\\Images</title>
<polygon fill="none" stroke="black" points="129.5,-230 72.5,-230 72.5,-194 129.5,-194 129.5,-230"/>
<text text-anchor="middle" x="101" y="-209.2" font-family="Courier,monospace" font-size="11.00">Images</text>
</g>
<!-- \\Mo\\Core\\Svg -->
<g id="node4" class="node">
<title>\\Mo\\Core\\Svg</title>
<polygon fill="none" stroke="black" points="128,-176 74,-176 74,-140 128,-140 128,-176"/>
<text text-anchor="middle" x="101" y="-155.2" font-family="Courier,monospace" font-size="11.00">Svg</text>
</g>
<!-- \\Mo\\Core\\Helpers -->
<g id="node5" class="node">
<title>\\Mo\\Core\\Helpers</title>
<polygon fill="none" stroke="black" points="133,-122 69,-122 69,-86 133,-86 133,-122"/>
<text text-anchor="middle" x="101" y="-101.2" font-family="Courier,monospace" font-size="11.00">Helpers</text>
</g>
<!-- \\Mo\\Core\\Youtube_Embed -->
<g id="node6" class="node">
<title>\\Mo\\Core\\Youtube_Embed</title>
<polygon fill="none" stroke="black" points="153,-68 49,-68 49,-32 153,-32 153,-68"/>
<text text-anchor="middle" x="101" y="-47.2" font-family="Courier,monospace" font-size="11.00">Youtube_Embed</text>
</g>
</g>
</svg>
